<svg width="16" height="18" viewBox="0 0 16 18" fill="none" xmlns="http://www.w3.org/2000/svg">
<path d="M8.70968 12.4839C8.70968 12.9649 8.31984 13.3548 7.83871 13.3548C7.35758 13.3548 6.96774 12.9649 6.96774 12.4839C6.96774 12.0028 7.35758 11.6129 7.83871 11.6129C8.31984 11.6129 8.70968 12.0028 8.70968 12.4839Z" fill="#0563D9"/>
<path fill-rule="evenodd" clip-rule="evenodd" d="M4.75942 1.27551C5.57595 0.458803 6.68366 0 7.83871 0C8.99376 0 10.1015 0.458803 10.918 1.27551C11.7348 2.09219 12.1935 3.19986 12.1935 4.35484V6.96774H12.4839C13.3307 6.96774 14.143 7.30421 14.7421 7.9031C15.3409 8.502 15.6774 9.31431 15.6774 10.1613V14.8065C15.6774 15.6534 15.3409 16.4657 14.7421 17.0646C14.143 17.6635 13.3307 18 12.4839 18H3.19355C2.34668 18 1.5344 17.6635 0.935326 17.0646C0.336536 16.4657 0 15.6534 0 14.8065V10.1613C0 9.31431 0.336536 8.502 0.935326 7.9031C1.5344 7.30421 2.34668 6.96774 3.19355 6.96774H3.48387V4.35484C3.48387 3.19986 3.9426 2.09219 4.75942 1.27551ZM5.99102 2.50722C5.5011 2.99725 5.22581 3.66185 5.22581 4.35484V6.96774H10.4516V4.35484C10.4516 3.66185 10.1763 2.99725 9.6864 2.50722C9.19619 2.01723 8.53163 1.74194 7.83871 1.74194C7.14579 1.74194 6.48122 2.01723 5.99102 2.50722ZM13.5102 9.13485C13.238 8.8626 12.8689 8.70968 12.4839 8.70968H3.19355C2.80853 8.70968 2.43939 8.8626 2.16721 9.13485C1.89475 9.40706 1.74194 9.77631 1.74194 10.1613V14.8065C1.74194 15.1914 1.89475 15.5607 2.16721 15.8329C2.43939 16.1051 2.80853 16.2581 3.19355 16.2581H12.4839C12.8689 16.2581 13.238 16.1051 13.5102 15.8329C13.7827 15.5607 13.9355 15.1914 13.9355 14.8065V10.1613C13.9355 9.77631 13.7827 9.40706 13.5102 9.13485Z" fill="#079aa2"/>
</svg>
