<svg viewBox="0 0 20 20" fill="none" xmlns="http://www.w3.org/2000/svg">
<path fill-rule="evenodd" clip-rule="evenodd" d="M9.89128 1.11591C10.1656 0.96137 10.5046 0.961358 10.779 1.1159C11.0525 1.26999 11.2171 1.5521 11.2171 1.85335V3.32761L14.521 3.32737V1.85336C14.521 1.55216 14.6857 1.27 14.9591 1.11591C15.2334 0.961384 15.5725 0.961376 15.8468 1.11592C16.1205 1.27 16.2852 1.5521 16.2852 1.85336V3.44202L16.4943 3.51419C17.1318 3.73421 17.6823 4.14089 18.0716 4.67737C18.4606 5.21365 18.6692 5.85351 18.67 6.50895V15.819C18.67 16.6603 18.3277 17.4684 17.7159 18.0656C17.1035 18.6632 16.2719 19 15.4029 19H5.26702C4.39804 19 3.56634 18.6631 2.95408 18.0656C2.34223 17.4684 2 16.6603 2 15.819V6.50877C2.0008 5.85342 2.20941 5.21361 2.59841 4.67736C2.98759 4.14089 3.53815 3.73419 4.17566 3.51419L4.38477 3.44203V1.85336C4.38477 1.55215 4.54939 1.27003 4.82305 1.11595C5.09734 0.961425 5.43648 0.961382 5.71082 1.11592C5.98433 1.27001 6.14899 1.55219 6.14899 1.85345L6.1494 3.32761L9.45314 3.32737V1.85335C9.45314 1.55213 9.61779 1.26999 9.89128 1.11591ZM3.76393 7.98276H16.9057V6.50862C16.9057 6.11508 16.7453 5.73927 16.4628 5.46355C16.1805 5.1881 15.799 5.03434 15.4028 5.03434H5.26688C4.87058 5.03434 4.48911 5.1881 4.20687 5.46354C3.92435 5.73924 3.76393 6.1151 3.76393 6.50862V7.98276ZM16.9057 9.68966H3.76393V15.819C3.76393 16.2126 3.92452 16.5882 4.20687 16.864C4.48921 17.1396 4.87073 17.2931 5.26688 17.2931H15.4028C15.7989 17.2931 16.1805 17.1395 16.4628 16.864C16.7452 16.5882 16.9057 16.2126 16.9057 15.819V9.68966Z" fill="#079aa2"/>
</svg>
