<svg width="20" height="20" viewBox="0 0 20 20" fill="none" xmlns="http://www.w3.org/2000/svg">
<path fill-rule="evenodd" clip-rule="evenodd" d="M15.0089 14.2689C14.8028 14.1749 14.6426 14.003 14.5628 13.7902L13.113 9.9219L12.8573 9.96901C12.8189 9.9761 12.7801 9.9802 12.7408 9.98131H6.53681L5.10819 13.7907C5.02897 14.003 4.86873 14.175 4.66257 14.269C4.45686 14.363 4.22163 14.3712 4.00952 14.292C3.79717 14.2129 3.62544 14.0527 3.5311 13.8463C3.43698 13.6403 3.42868 13.4052 3.50778 13.193L7.46472 2.64435C7.64541 2.16141 7.96935 1.74517 8.39304 1.45129C8.81666 1.15746 9.32032 1 9.83557 1C10.3514 1 10.8551 1.15748 11.2787 1.45129C11.7024 1.74517 12.0264 2.16164 12.2071 2.64459L16.1635 13.1935C16.2431 13.4055 16.2348 13.6403 16.1406 13.8463C16.0464 14.0525 15.8741 14.2129 15.662 14.2921C15.4499 14.3713 15.2146 14.3629 15.0089 14.2689ZM9.83557 2.7065C9.72207 2.7065 9.61052 2.72985 9.5076 2.77489C9.45811 2.79637 9.41048 2.82274 9.36555 2.85374L9.36449 2.85448C9.22644 2.95058 9.12046 3.08763 9.06196 3.24575L7.17688 8.27459H12.4948L10.6094 3.24484C10.5509 3.08672 10.4452 2.95053 10.3071 2.85443C10.1689 2.75825 10.0048 2.7065 9.83557 2.7065Z" fill="#079aa2"/>
<path d="M16.8178 17.2933C17.044 17.2933 17.2611 17.3832 17.4211 17.5432C17.5811 17.7033 17.6711 17.9204 17.6711 18.1466C17.6711 18.3729 17.5811 18.59 17.4211 18.7501C17.2611 18.9101 17.044 19 16.8178 19H2.85336C2.62711 19 2.41002 18.9101 2.25005 18.7501C2.08997 18.59 2 18.3729 2 18.1466C2 17.9204 2.08999 17.7033 2.25007 17.5432C2.41004 17.3832 2.62711 17.2933 2.85336 17.2933H16.8178Z" fill="#079aa2"/>
</svg>
