<svg width="19" height="16" viewBox="0 0 19 16" fill="none" xmlns="http://www.w3.org/2000/svg">
<path fill-rule="evenodd" clip-rule="evenodd" d="M3.25926 0H15.1111C15.979 0 16.8089 0.332811 17.4194 0.922223C18.0297 1.51151 18.3704 2.30811 18.3704 3.13665V12.8633C18.3704 13.6919 18.0297 14.4885 17.4194 15.0778C16.8089 15.6672 15.9789 16 15.1111 16H3.25926C2.39142 16 1.56145 15.6672 0.950991 15.0778C0.340667 14.4885 0 13.6919 0 12.8633V3.13665C0 2.30806 0.34071 1.51146 0.95099 0.922224C1.56145 0.332817 2.39147 0 3.25926 0ZM16.5925 3.13663C16.5925 2.75116 16.4339 2.38354 16.155 2.11428C15.8765 1.84559 15.5009 1.69589 15.1111 1.69589H3.25926C2.86949 1.69592 2.49399 1.84561 2.21548 2.11427C1.93659 2.38353 1.77797 2.75118 1.77797 3.13663V4.46658L7.90069 7.43126L7.9031 7.4324C8.71126 7.81479 9.65638 7.81479 10.4647 7.43243L16.5925 4.46661V3.13663ZM15.1112 14.3039C15.501 14.3039 15.8764 14.1543 16.155 13.8856C16.4339 13.6164 16.5926 13.2486 16.5926 12.8632L16.5925 6.38361L11.2698 8.95159C9.95772 9.58463 8.41274 9.58463 7.10065 8.95159L1.77793 6.38358V12.8632C1.77793 13.2487 1.93665 13.6164 2.21553 13.8856C2.49407 14.1543 2.86954 14.3039 3.25933 14.3039H15.1112Z" fill="#079aa2"/>
</svg>
